<svg width="16" height="20" viewBox="0 0 16 20" fill="none" xmlns="http://www.w3.org/2000/svg">
<path d="M13.3768 10.5693C13.3677 8.92994 14.075 7.69441 15.5033 6.78339C14.7044 5.58151 13.4959 4.92048 11.9027 4.79308C10.3943 4.66809 8.74392 5.71612 8.13963 5.71612C7.501 5.71612 6.04063 4.83635 4.89156 4.83635C2.52017 4.87481 0 6.82185 0 10.7832C0 11.9539 0.20372 13.163 0.611159 14.4081C1.15594 16.0475 3.11989 20.0641 5.16853 19.9992C6.23977 19.9728 6.99742 19.2012 8.39142 19.2012C9.74421 19.2012 10.4446 19.9992 11.6395 19.9992C13.7064 19.968 15.4827 16.3167 16 14.6725C13.228 13.3 13.3768 10.6534 13.3768 10.5693ZM10.9711 3.23785C12.1316 1.7908 12.0263 0.473539 11.992 0C10.9665 0.0624976 9.78083 0.733145 9.10558 1.55763C8.36166 2.44221 7.92446 3.53592 8.01831 4.76905C9.12618 4.85798 10.1379 4.25945 10.9711 3.23785Z" fill="white"/>
</svg>
