<svg width="23" height="23" viewBox="0 0 23 23" fill="none" xmlns="http://www.w3.org/2000/svg">
<path d="M11.5 23C5.14873 23 0 17.8513 0 11.5C0 5.14873 5.14873 0 11.5 0C17.8513 0 23 5.14873 23 11.5C22.993 17.8484 17.8484 22.993 11.5 23ZM10.35 17.25V19.55H12.65V17.25H10.35ZM11.5 5.75C12.7703 5.75 13.8 6.77975 13.8 8.05C13.804 8.66034 13.559 9.24593 13.1215 9.6715L11.6955 11.1205C10.8347 11.985 10.3509 13.155 10.35 14.375V14.95H12.65C12.5606 13.7138 13.0592 12.5077 13.9955 11.6955L15.0305 10.6375C15.7183 9.95246 16.1034 9.02073 16.1 8.05C16.1 5.50949 14.0405 3.45 11.5 3.45C8.95949 3.45 6.9 5.50949 6.9 8.05H9.2C9.2 6.77975 10.2297 5.75 11.5 5.75Z" fill="#403896" fill-opacity="0.36"/>
</svg>
